<?xml version="1.0" encoding="UTF-8"?>
<svg xmlns="http://www.w3.org/2000/svg" xmlns:xlink="http://www.w3.org/1999/xlink" width="115px" height="30px" viewBox="0 0 114 30" version="1.1">
<g id="surface1">
<path style=" stroke:none;fill-rule:nonzero;fill:rgb(99.215686%,99.215686%,99.215686%);fill-opacity:1;" d="M 0 0 C 37.621094 0 75.238281 0 114 0 C 114 9.898438 114 19.800781 114 30 C 76.378906 30 38.761719 30 0 30 C 0 20.101562 0 10.199219 0 0 Z M 0 0 "/>
<path style=" stroke:none;fill-rule:nonzero;fill:rgb(9.411765%,9.411765%,9.411765%);fill-opacity:1;" d="M 67.421875 6.171875 C 69.316406 6.171875 71.210938 6.171875 73.164062 6.171875 C 73.164062 6.242188 73.164062 6.3125 73.164062 6.382812 C 72.742188 6.382812 72.320312 6.382812 71.886719 6.382812 C 71.886719 8.066406 71.886719 9.753906 71.886719 11.488281 C 73.363281 11.488281 74.835938 11.488281 76.355469 11.488281 C 76.355469 9.804688 76.355469 8.121094 76.355469 6.382812 C 75.933594 6.382812 75.511719 6.382812 75.078125 6.382812 C 75.078125 6.3125 75.078125 6.242188 75.078125 6.171875 C 76.972656 6.171875 78.867188 6.171875 80.820312 6.171875 C 80.820312 6.242188 80.820312 6.3125 80.820312 6.382812 C 80.398438 6.382812 79.980469 6.382812 79.542969 6.382812 C 79.542969 9.824219 79.542969 13.265625 79.542969 16.808594 C 79.964844 16.808594 80.386719 16.808594 80.820312 16.808594 C 80.820312 16.949219 80.820312 17.089844 80.820312 17.234375 C 78.855469 17.234375 76.890625 17.234375 74.867188 17.234375 C 74.867188 17.09375 74.867188 16.953125 74.867188 16.808594 C 75.355469 16.808594 75.847656 16.808594 76.355469 16.808594 C 76.355469 15.125 76.355469 13.4375 76.355469 11.703125 C 74.878906 11.703125 73.40625 11.703125 71.886719 11.703125 C 71.886719 13.386719 71.886719 15.074219 71.886719 16.808594 C 72.378906 16.808594 72.871094 16.808594 73.375 16.808594 C 73.375 16.949219 73.375 17.089844 73.375 17.234375 C 71.410156 17.234375 69.445312 17.234375 67.421875 17.234375 C 67.421875 17.09375 67.421875 16.953125 67.421875 16.808594 C 67.84375 16.808594 68.265625 16.808594 68.699219 16.808594 C 68.699219 13.367188 68.699219 9.925781 68.699219 6.382812 C 68.277344 6.382812 67.855469 6.382812 67.421875 6.382812 C 67.421875 6.3125 67.421875 6.242188 67.421875 6.171875 Z M 67.421875 6.171875 "/>
<path style=" stroke:none;fill-rule:nonzero;fill:rgb(6.666667%,6.666667%,6.666667%);fill-opacity:1;" d="M 102.089844 5.957031 C 104.054688 5.957031 106.019531 5.957031 108.042969 5.957031 C 108.042969 6.097656 108.042969 6.238281 108.042969 6.382812 C 107.625 6.382812 107.203125 6.382812 106.769531 6.382812 C 106.769531 9.824219 106.769531 13.265625 106.769531 16.808594 C 107.820312 16.738281 108.875 16.667969 109.957031 16.597656 C 110.527344 15.839844 110.683594 15.59375 110.847656 14.734375 C 110.882812 14.5625 110.917969 14.394531 110.953125 14.21875 C 110.976562 14.089844 111 13.960938 111.023438 13.828125 C 111.164062 13.828125 111.304688 13.828125 111.449219 13.828125 C 111.378906 14.953125 111.308594 16.078125 111.234375 17.234375 C 108.21875 17.234375 105.199219 17.234375 102.089844 17.234375 C 102.089844 17.09375 102.089844 16.953125 102.089844 16.808594 C 102.511719 16.808594 102.933594 16.808594 103.367188 16.808594 C 103.367188 13.367188 103.367188 9.925781 103.367188 6.382812 C 102.945312 6.382812 102.523438 6.382812 102.089844 6.382812 C 102.089844 6.242188 102.089844 6.101562 102.089844 5.957031 Z M 102.089844 5.957031 "/>
<path style=" stroke:none;fill-rule:nonzero;fill:rgb(9.411765%,9.411765%,9.411765%);fill-opacity:1;" d="M 39.113281 5.933594 C 39.292969 5.933594 39.46875 5.933594 39.652344 5.933594 C 39.851562 5.933594 40.050781 5.933594 40.257812 5.933594 C 40.476562 5.933594 40.691406 5.933594 40.917969 5.9375 C 41.136719 5.9375 41.359375 5.9375 41.585938 5.9375 C 42.296875 5.9375 43.007812 5.941406 43.71875 5.945312 C 44.199219 5.945312 44.679688 5.945312 45.164062 5.945312 C 46.34375 5.949219 47.523438 5.953125 48.707031 5.957031 C 48.707031 7.011719 48.707031 8.0625 48.707031 9.148438 C 48.636719 9.148438 48.566406 9.148438 48.492188 9.148438 C 48.46875 9.019531 48.445312 8.886719 48.421875 8.753906 C 48.386719 8.582031 48.355469 8.410156 48.320312 8.230469 C 48.289062 8.0625 48.253906 7.890625 48.222656 7.714844 C 48.082031 7.152344 48.082031 7.152344 47.429688 6.597656 C 46.726562 6.527344 46.023438 6.457031 45.300781 6.382812 C 45.300781 9.824219 45.300781 13.265625 45.300781 16.808594 C 45.722656 16.808594 46.144531 16.808594 46.578125 16.808594 C 46.578125 16.949219 46.578125 17.089844 46.578125 17.234375 C 44.613281 17.234375 42.648438 17.234375 40.625 17.234375 C 40.625 17.09375 40.625 16.953125 40.625 16.808594 C 41.113281 16.808594 41.605469 16.808594 42.113281 16.808594 C 42.113281 13.367188 42.113281 9.925781 42.113281 6.382812 C 40.210938 6.496094 40.210938 6.496094 39.347656 6.808594 C 39.207031 7.582031 39.066406 8.351562 38.921875 9.148438 C 38.78125 9.148438 38.640625 9.148438 38.496094 9.148438 C 38.492188 8.65625 38.488281 8.164062 38.484375 7.671875 C 38.480469 7.398438 38.476562 7.125 38.476562 6.84375 C 38.503906 5.96875 38.503906 5.96875 39.113281 5.933594 Z M 39.113281 5.933594 "/>
<path style=" stroke:none;fill-rule:nonzero;fill:rgb(11.372549%,11.372549%,11.372549%);fill-opacity:1;" d="M 14.039062 5.957031 C 16.003906 5.957031 17.96875 5.957031 19.992188 5.957031 C 19.992188 6.097656 19.992188 6.238281 19.992188 6.382812 C 19.5 6.382812 19.011719 6.382812 18.503906 6.382812 C 18.519531 7.460938 18.539062 8.539062 18.558594 9.617188 C 18.566406 9.984375 18.574219 10.347656 18.578125 10.714844 C 18.535156 13.738281 18.535156 13.738281 19.355469 16.597656 C 20.339844 16.921875 21.34375 16.996094 22.339844 16.664062 C 23.410156 16.113281 23.789062 15.421875 24.152344 14.316406 C 24.285156 13.617188 24.273438 12.921875 24.265625 12.210938 C 24.265625 12.054688 24.265625 11.902344 24.265625 11.742188 C 24.265625 11.25 24.261719 10.757812 24.257812 10.265625 C 24.257812 9.929688 24.257812 9.597656 24.257812 9.261719 C 24.253906 8.445312 24.25 7.625 24.246094 6.808594 C 23.824219 6.667969 23.402344 6.527344 22.96875 6.382812 C 22.96875 6.242188 22.96875 6.101562 22.96875 5.957031 C 24.023438 5.957031 25.074219 5.957031 26.160156 5.957031 C 26.160156 6.097656 26.160156 6.238281 26.160156 6.382812 C 25.738281 6.523438 25.316406 6.664062 24.882812 6.808594 C 24.882812 7.027344 24.878906 7.242188 24.875 7.46875 C 24.863281 8.28125 24.847656 9.09375 24.828125 9.910156 C 24.820312 10.257812 24.816406 10.609375 24.8125 10.960938 C 24.804688 11.46875 24.792969 11.972656 24.78125 12.480469 C 24.777344 12.714844 24.777344 12.714844 24.777344 12.953125 C 24.738281 14.304688 24.421875 15.296875 23.515625 16.34375 C 22.152344 17.507812 20.628906 17.367188 18.917969 17.273438 C 17.824219 17.167969 17.167969 16.769531 16.425781 15.984375 C 15.371094 14.679688 15.28125 13.582031 15.292969 11.929688 C 15.292969 11.773438 15.292969 11.613281 15.292969 11.449219 C 15.292969 10.945312 15.296875 10.4375 15.300781 9.933594 C 15.300781 9.589844 15.300781 9.246094 15.304688 8.902344 C 15.304688 8.0625 15.308594 7.222656 15.3125 6.382812 C 14.890625 6.382812 14.472656 6.382812 14.039062 6.382812 C 14.039062 6.242188 14.039062 6.101562 14.039062 5.957031 Z M 14.039062 5.957031 "/>
<path style=" stroke:none;fill-rule:nonzero;fill:rgb(7.843138%,7.843138%,7.843138%);fill-opacity:1;" d="M 6.378906 6.171875 C 8.277344 6.171875 10.171875 6.171875 12.125 6.171875 C 12.125 6.242188 12.125 6.3125 12.125 6.382812 C 11.703125 6.382812 11.28125 6.382812 10.847656 6.382812 C 10.851562 6.65625 10.855469 6.929688 10.859375 7.207031 C 10.875 8.226562 10.886719 9.246094 10.894531 10.265625 C 10.898438 10.707031 10.902344 11.144531 10.910156 11.585938 C 10.921875 12.21875 10.925781 12.855469 10.929688 13.488281 C 10.933594 13.683594 10.9375 13.875 10.945312 14.078125 C 10.945312 15.5625 10.671875 17.039062 9.710938 18.226562 C 8.378906 19.441406 6.800781 19.421875 5.105469 19.363281 C 5.105469 19.292969 5.105469 19.222656 5.105469 19.148438 C 5.238281 19.113281 5.371094 19.082031 5.507812 19.046875 C 5.769531 18.972656 5.769531 18.972656 6.035156 18.894531 C 6.292969 18.824219 6.292969 18.824219 6.558594 18.753906 C 7.1875 18.421875 7.230469 18.113281 7.445312 17.445312 C 7.511719 16.894531 7.511719 16.894531 7.511719 16.308594 C 7.515625 16.089844 7.519531 15.867188 7.523438 15.640625 C 7.527344 15.402344 7.53125 15.167969 7.53125 14.921875 C 7.535156 14.679688 7.539062 14.433594 7.542969 14.183594 C 7.558594 13.40625 7.566406 12.625 7.578125 11.847656 C 7.585938 11.320312 7.59375 10.792969 7.601562 10.265625 C 7.621094 8.96875 7.640625 7.675781 7.65625 6.382812 C 7.234375 6.382812 6.816406 6.382812 6.378906 6.382812 C 6.378906 6.3125 6.378906 6.242188 6.378906 6.171875 Z M 6.378906 6.171875 "/>
<path style=" stroke:none;fill-rule:nonzero;fill:rgb(7.843138%,7.843138%,7.843138%);fill-opacity:1;" d="M 91.03125 6.171875 C 92.925781 6.171875 94.820312 6.171875 96.773438 6.171875 C 96.773438 6.242188 96.773438 6.3125 96.773438 6.382812 C 96.351562 6.382812 95.929688 6.382812 95.496094 6.382812 C 95.496094 9.824219 95.496094 13.265625 95.496094 16.808594 C 98.460938 16.960938 98.460938 16.960938 99.324219 15.957031 C 99.539062 15.425781 99.539062 15.425781 99.683594 14.855469 C 99.765625 14.566406 99.765625 14.566406 99.84375 14.273438 C 99.882812 14.125 99.921875 13.980469 99.960938 13.828125 C 100.03125 13.828125 100.101562 13.828125 100.175781 13.828125 C 100.175781 14.953125 100.175781 16.078125 100.175781 17.234375 C 97.15625 17.234375 94.140625 17.234375 91.03125 17.234375 C 91.03125 17.09375 91.03125 16.953125 91.03125 16.808594 C 91.449219 16.808594 91.871094 16.808594 92.304688 16.808594 C 92.304688 13.367188 92.304688 9.925781 92.304688 6.382812 C 91.886719 6.382812 91.464844 6.382812 91.03125 6.382812 C 91.03125 6.3125 91.03125 6.242188 91.03125 6.171875 Z M 91.03125 6.171875 "/>
<path style=" stroke:none;fill-rule:nonzero;fill:rgb(13.725491%,13.725491%,13.725491%);fill-opacity:1;" d="M 82.949219 6.171875 C 84.84375 6.171875 86.738281 6.171875 88.691406 6.171875 C 88.691406 6.242188 88.691406 6.3125 88.691406 6.382812 C 88.339844 6.382812 87.988281 6.382812 87.625 6.382812 C 87.625 9.824219 87.625 13.265625 87.625 16.808594 C 88.046875 16.808594 88.46875 16.808594 88.902344 16.808594 C 88.902344 16.949219 88.902344 17.089844 88.902344 17.234375 C 86.9375 17.234375 84.972656 17.234375 82.949219 17.234375 C 82.949219 17.09375 82.949219 16.953125 82.949219 16.808594 C 83.367188 16.808594 83.789062 16.808594 84.222656 16.808594 C 84.222656 13.367188 84.222656 9.925781 84.222656 6.382812 C 83.804688 6.382812 83.382812 6.382812 82.949219 6.382812 C 82.949219 6.3125 82.949219 6.242188 82.949219 6.171875 Z M 82.949219 6.171875 "/>
<path style=" stroke:none;fill-rule:nonzero;fill:rgb(10.588235%,10.588235%,10.588235%);fill-opacity:1;" d="M 63.59375 6.382812 C 64.230469 6.320312 64.722656 6.242188 65.292969 5.957031 C 65.222656 7.152344 65.15625 8.34375 65.082031 9.574219 C 64.941406 9.574219 64.800781 9.574219 64.65625 9.574219 C 64.636719 9.445312 64.613281 9.316406 64.59375 9.183594 C 64.398438 8.152344 64.261719 7.46875 63.378906 6.808594 C 62.539062 6.386719 61.53125 6.476562 60.617188 6.597656 C 59.789062 7.261719 59.539062 8.132812 59.339844 9.148438 C 59.28125 9.882812 59.28125 10.609375 59.285156 11.34375 C 59.285156 11.53125 59.28125 11.71875 59.28125 11.914062 C 59.285156 13.472656 59.316406 15.101562 60.230469 16.410156 C 61.011719 16.933594 61.390625 16.949219 62.316406 16.808594 C 63.273438 16.492188 63.875 16.1875 64.417969 15.320312 C 64.496094 15.109375 64.574219 14.898438 64.65625 14.679688 C 64.796875 14.398438 64.941406 14.113281 65.082031 13.828125 C 65.210938 14.886719 64.960938 15.417969 64.375 16.253906 C 63.4375 17.15625 62.453125 17.328125 61.1875 17.339844 C 59.335938 17.296875 58.195312 16.808594 56.921875 15.480469 C 55.71875 13.929688 55.496094 12.128906 55.722656 10.210938 C 56.136719 8.761719 56.921875 7.535156 58.15625 6.648438 C 59.929688 5.78125 61.753906 5.621094 63.59375 6.382812 Z M 63.59375 6.382812 "/>
<path style=" stroke:none;fill-rule:nonzero;fill:rgb(9.411765%,9.411765%,9.411765%);fill-opacity:1;" d="M 33.179688 5.957031 C 33.179688 6.027344 33.179688 6.097656 33.179688 6.171875 C 33.019531 6.195312 32.855469 6.222656 32.691406 6.25 C 32.371094 6.300781 32.371094 6.300781 32.050781 6.355469 C 31.839844 6.390625 31.628906 6.425781 31.414062 6.460938 C 30.796875 6.570312 30.796875 6.570312 30.203125 7.019531 C 30.058594 7.746094 30.058594 7.746094 30.203125 8.511719 C 30.941406 9.242188 31.609375 9.507812 32.609375 9.761719 C 34.140625 10.207031 35.222656 10.773438 36.15625 12.085938 C 36.539062 13.3125 36.550781 14.40625 36.050781 15.597656 C 35.617188 16.347656 35.15625 16.761719 34.359375 17.101562 C 33.191406 17.386719 31.503906 17.597656 30.417969 17.003906 C 29.839844 16.695312 29.839844 16.695312 28.5 17.019531 C 28.5 15.828125 28.5 14.632812 28.5 13.402344 C 28.570312 13.402344 28.640625 13.402344 28.710938 13.402344 C 28.796875 13.792969 28.796875 13.792969 28.886719 14.1875 C 29.167969 15.28125 29.414062 15.949219 30.414062 16.554688 C 31.609375 17.007812 33.042969 16.996094 34.242188 16.597656 C 34.734375 15.855469 34.722656 15.546875 34.667969 14.679688 C 34.597656 14.46875 34.527344 14.257812 34.457031 14.042969 C 34.09375 13.859375 34.09375 13.859375 33.644531 13.75 C 31.511719 13.09375 29.769531 12.539062 28.5 10.636719 C 28.355469 9.476562 28.355469 8.421875 28.820312 7.339844 C 30.125 6.035156 31.375 5.824219 33.179688 5.957031 Z M 33.179688 5.957031 "/>
<path style=" stroke:none;fill-rule:nonzero;fill:rgb(80.000001%,32.941177%,48.235294%);fill-opacity:1;" d="M 31.265625 22.339844 C 31.757812 22.339844 32.246094 22.339844 32.753906 22.339844 C 32.964844 23.113281 33.175781 23.886719 33.390625 24.679688 C 33.53125 24.679688 33.671875 24.679688 33.816406 24.679688 C 33.84375 24.53125 33.875 24.378906 33.902344 24.222656 C 33.941406 24.027344 33.976562 23.832031 34.015625 23.628906 C 34.054688 23.433594 34.089844 23.242188 34.128906 23.039062 C 34.242188 22.554688 34.242188 22.554688 34.457031 22.339844 C 34.875 22.339844 35.296875 22.339844 35.730469 22.339844 C 35.730469 23.605469 35.730469 24.867188 35.730469 26.171875 C 35.449219 26.171875 35.167969 26.171875 34.878906 26.171875 C 34.808594 25.609375 34.738281 25.046875 34.667969 24.46875 C 34.457031 25.03125 34.246094 25.589844 34.03125 26.171875 C 33.679688 26.101562 33.328125 26.03125 32.964844 25.957031 C 32.824219 25.535156 32.6875 25.113281 32.542969 24.679688 C 32.472656 25.242188 32.402344 25.804688 32.328125 26.382812 C 31.976562 26.382812 31.625 26.382812 31.265625 26.382812 C 31.265625 25.050781 31.265625 23.714844 31.265625 22.339844 Z M 31.265625 22.339844 "/>
<path style=" stroke:none;fill-rule:nonzero;fill:rgb(79.215688%,30.980393%,46.666667%);fill-opacity:1;" d="M 61.480469 22.238281 C 62.226562 22.421875 62.53125 22.78125 62.957031 23.402344 C 63.074219 24.230469 63.027344 24.722656 62.703125 25.492188 C 62.238281 26.050781 61.960938 26.21875 61.253906 26.382812 C 60.4375 26.367188 60.089844 26.269531 59.472656 25.730469 C 59.027344 24.921875 58.921875 24.308594 59.125 23.402344 C 59.765625 22.445312 60.359375 22.160156 61.480469 22.238281 Z M 61.480469 22.238281 "/>
<path style=" stroke:none;fill-rule:nonzero;fill:rgb(47.843137%,47.843137%,47.843137%);fill-opacity:1;" d="M 102.089844 5.957031 C 104.054688 5.957031 106.019531 5.957031 108.042969 5.957031 C 108.042969 6.097656 108.042969 6.238281 108.042969 6.382812 C 107.625 6.382812 107.203125 6.382812 106.769531 6.382812 C 106.769531 9.824219 106.769531 13.265625 106.769531 16.808594 C 107.820312 16.738281 108.875 16.667969 109.957031 16.597656 C 110.527344 15.839844 110.683594 15.59375 110.847656 14.734375 C 110.882812 14.5625 110.917969 14.394531 110.953125 14.21875 C 110.976562 14.089844 111 13.960938 111.023438 13.828125 C 111.164062 13.828125 111.304688 13.828125 111.449219 13.828125 C 111.378906 14.953125 111.308594 16.078125 111.234375 17.234375 C 108.21875 17.234375 105.199219 17.234375 102.089844 17.234375 C 102.089844 17.09375 102.089844 16.953125 102.089844 16.808594 C 102.511719 16.808594 102.933594 16.808594 103.367188 16.808594 C 103.367188 13.367188 103.367188 9.925781 103.367188 6.382812 C 102.945312 6.382812 102.523438 6.382812 102.089844 6.382812 C 102.089844 6.242188 102.089844 6.101562 102.089844 5.957031 Z M 103.578125 6.171875 C 103.578125 9.75 103.578125 13.332031 103.578125 17.019531 C 104.5625 17.019531 105.542969 17.019531 106.554688 17.019531 C 106.625 13.441406 106.695312 9.859375 106.769531 6.171875 C 105.714844 6.171875 104.664062 6.171875 103.578125 6.171875 Z M 103.578125 6.171875 "/>
<path style=" stroke:none;fill-rule:nonzero;fill:rgb(81.176472%,37.64706%,51.764709%);fill-opacity:1;" d="M 83.160156 22.339844 C 83.492188 22.328125 83.828125 22.3125 84.171875 22.300781 C 84.453125 22.289062 84.453125 22.289062 84.738281 22.277344 C 85.390625 22.351562 85.671875 22.523438 86.136719 22.980469 C 86.257812 23.773438 86.167969 23.996094 85.710938 24.679688 C 85.816406 24.804688 85.921875 24.925781 86.03125 25.054688 C 86.351562 25.53125 86.351562 25.53125 86.351562 26.382812 C 85.859375 26.34375 85.859375 26.34375 85.289062 26.171875 C 84.929688 25.636719 84.929688 25.636719 84.648438 25.105469 C 84.507812 25.035156 84.367188 24.964844 84.222656 24.894531 C 84.222656 25.386719 84.222656 25.875 84.222656 26.382812 C 83.871094 26.382812 83.523438 26.382812 83.160156 26.382812 C 83.160156 25.050781 83.160156 23.714844 83.160156 22.339844 Z M 83.160156 22.339844 "/>
<path style=" stroke:none;fill-rule:nonzero;fill:rgb(79.215688%,30.980393%,46.666667%);fill-opacity:1;" d="M 22.757812 22.339844 C 23.109375 22.339844 23.460938 22.339844 23.820312 22.339844 C 24.203125 22.757812 24.203125 22.757812 24.527344 23.296875 C 24.632812 23.476562 24.742188 23.652344 24.855469 23.835938 C 24.933594 23.976562 25.015625 24.113281 25.097656 24.253906 C 25.167969 23.625 25.238281 22.992188 25.308594 22.339844 C 25.589844 22.339844 25.871094 22.339844 26.160156 22.339844 C 26.160156 23.675781 26.160156 25.007812 26.160156 26.382812 C 25.097656 26.171875 25.097656 26.171875 24.714844 25.730469 C 24.609375 25.554688 24.5 25.378906 24.390625 25.199219 C 24.285156 25.023438 24.175781 24.847656 24.0625 24.667969 C 23.984375 24.53125 23.902344 24.394531 23.820312 24.253906 C 23.75 24.957031 23.679688 25.660156 23.609375 26.382812 C 23.328125 26.382812 23.046875 26.382812 22.757812 26.382812 C 22.757812 25.050781 22.757812 23.714844 22.757812 22.339844 Z M 22.757812 22.339844 "/>
<path style=" stroke:none;fill-rule:nonzero;fill:rgb(78.823531%,29.803923%,45.882353%);fill-opacity:1;" d="M 95.070312 22.339844 C 96.132812 22.554688 96.132812 22.554688 96.515625 22.992188 C 96.625 23.167969 96.730469 23.34375 96.839844 23.523438 C 96.949219 23.699219 97.054688 23.875 97.167969 24.058594 C 97.25 24.191406 97.328125 24.328125 97.410156 24.46875 C 97.480469 23.765625 97.550781 23.0625 97.625 22.339844 C 97.902344 22.339844 98.183594 22.339844 98.472656 22.339844 C 98.472656 23.675781 98.472656 25.007812 98.472656 26.382812 C 97.410156 26.171875 97.410156 26.171875 97.027344 25.730469 C 96.921875 25.554688 96.816406 25.378906 96.707031 25.199219 C 96.597656 25.023438 96.488281 24.847656 96.375 24.667969 C 96.296875 24.53125 96.214844 24.394531 96.132812 24.253906 C 96.0625 24.886719 95.992188 25.519531 95.921875 26.171875 C 95.640625 26.171875 95.359375 26.171875 95.070312 26.171875 C 95.070312 24.90625 95.070312 23.640625 95.070312 22.339844 Z M 95.070312 22.339844 "/>
<path style=" stroke:none;fill-rule:nonzero;fill:rgb(78.823531%,30.19608%,46.27451%);fill-opacity:1;" d="M 68.910156 22.339844 C 70.824219 22.339844 70.824219 22.339844 71.675781 22.765625 C 71.703125 23.949219 71.703125 23.949219 71.542969 24.507812 C 71.515625 24.636719 71.488281 24.761719 71.460938 24.894531 C 71.671875 25.210938 71.671875 25.210938 71.886719 25.53125 C 71.886719 25.8125 71.886719 26.09375 71.886719 26.382812 C 71.539062 26.3125 71.1875 26.242188 70.824219 26.171875 C 70.683594 25.75 70.542969 25.328125 70.398438 24.894531 C 70.1875 24.894531 69.976562 24.894531 69.761719 24.894531 C 69.761719 25.316406 69.761719 25.734375 69.761719 26.171875 C 69.480469 26.171875 69.199219 26.171875 68.910156 26.171875 C 68.910156 24.90625 68.910156 23.640625 68.910156 22.339844 Z M 68.910156 22.339844 "/>
<path style=" stroke:none;fill-rule:nonzero;fill:rgb(80.000001%,33.725491%,48.627451%);fill-opacity:1;" d="M 64.019531 22.339844 C 64.371094 22.339844 64.71875 22.339844 65.082031 22.339844 C 65.152344 23.324219 65.222656 24.304688 65.292969 25.320312 C 65.644531 25.320312 65.996094 25.320312 66.359375 25.320312 C 66.429688 24.335938 66.5 23.351562 66.570312 22.339844 C 66.921875 22.339844 67.273438 22.339844 67.632812 22.339844 C 67.796875 25.042969 67.796875 25.042969 67.207031 26.039062 C 66.316406 26.523438 65.878906 26.542969 64.871094 26.382812 C 64.226562 25.78125 64.03125 25.445312 63.9375 24.5625 C 63.945312 24.300781 63.957031 24.035156 63.964844 23.761719 C 63.972656 23.496094 63.980469 23.230469 63.988281 22.953125 C 64.003906 22.652344 64.003906 22.652344 64.019531 22.339844 Z M 64.019531 22.339844 "/>
<path style=" stroke:none;fill-rule:nonzero;fill:rgb(80.784315%,36.470589%,50.980395%);fill-opacity:1;" d="M 38.070312 22.339844 C 38.558594 22.355469 38.558594 22.355469 39.132812 22.554688 C 39.429688 23.054688 39.636719 23.480469 39.839844 24.015625 C 39.894531 24.152344 39.949219 24.289062 40.007812 24.425781 C 40.253906 25.039062 40.410156 25.503906 40.410156 26.171875 C 40.265625 26.136719 40.121094 26.101562 39.972656 26.0625 C 39.257812 25.941406 38.582031 25.941406 37.859375 25.957031 C 37.789062 26.097656 37.71875 26.238281 37.644531 26.382812 C 37.363281 26.382812 37.085938 26.382812 36.792969 26.382812 C 37.070312 24.953125 37.496094 23.675781 38.070312 22.339844 Z M 38.070312 22.339844 "/>
<path style=" stroke:none;fill-rule:nonzero;fill:rgb(79.607844%,32.156864%,47.450981%);fill-opacity:1;" d="M 76.992188 22.339844 C 77.417969 22.632812 77.417969 22.632812 77.628906 22.980469 C 77.628906 23.121094 77.628906 23.257812 77.628906 23.402344 C 77.28125 23.472656 76.929688 23.542969 76.566406 23.617188 C 76.566406 23.476562 76.566406 23.335938 76.566406 23.191406 C 76.285156 23.191406 76.003906 23.191406 75.714844 23.191406 C 75.714844 23.402344 75.714844 23.613281 75.714844 23.828125 C 75.953125 23.890625 76.191406 23.953125 76.433594 24.015625 C 77.207031 24.253906 77.207031 24.253906 77.628906 24.679688 C 77.589844 25.320312 77.589844 25.320312 77.417969 25.957031 C 76.632812 26.480469 76.21875 26.449219 75.292969 26.382812 C 75.082031 26.242188 74.871094 26.101562 74.652344 25.957031 C 74.652344 25.675781 74.652344 25.394531 74.652344 25.105469 C 75.296875 25.230469 75.933594 25.367188 76.566406 25.53125 C 76.0625 24.972656 75.511719 24.628906 74.867188 24.253906 C 74.652344 24.042969 74.652344 24.042969 74.601562 23.417969 C 74.617188 23.203125 74.636719 22.988281 74.652344 22.765625 C 75.457031 22.230469 76.046875 22.207031 76.992188 22.339844 Z M 76.992188 22.339844 "/>
<path style=" stroke:none;fill-rule:nonzero;fill:rgb(80.392158%,34.509805%,49.411765%);fill-opacity:1;" d="M 91.242188 22.339844 C 92.085938 22.339844 92.925781 22.339844 93.792969 22.339844 C 93.792969 22.621094 93.792969 22.902344 93.792969 23.191406 C 93.234375 23.191406 92.671875 23.191406 92.09375 23.191406 C 92.09375 23.402344 92.09375 23.613281 92.09375 23.828125 C 92.585938 23.828125 93.074219 23.828125 93.582031 23.828125 C 93.582031 24.109375 93.582031 24.390625 93.582031 24.679688 C 93.160156 24.679688 92.738281 24.679688 92.304688 24.679688 C 92.304688 24.890625 92.304688 25.101562 92.304688 25.320312 C 92.796875 25.320312 93.289062 25.320312 93.792969 25.320312 C 93.792969 25.671875 93.792969 26.019531 93.792969 26.382812 C 92.953125 26.382812 92.109375 26.382812 91.242188 26.382812 C 91.242188 25.050781 91.242188 23.714844 91.242188 22.339844 Z M 91.242188 22.339844 "/>
<path style=" stroke:none;fill-rule:nonzero;fill:rgb(80.784315%,35.686275%,50.196081%);fill-opacity:1;" d="M 46.152344 22.339844 C 46.640625 22.355469 46.640625 22.355469 47.214844 22.554688 C 47.511719 23.054688 47.71875 23.480469 47.921875 24.015625 C 47.976562 24.152344 48.03125 24.289062 48.089844 24.425781 C 48.335938 25.039062 48.492188 25.503906 48.492188 26.171875 C 48.347656 26.136719 48.203125 26.101562 48.054688 26.0625 C 46.953125 25.875 45.960938 25.9375 44.875 26.171875 C 45.253906 24.871094 45.664062 23.601562 46.152344 22.339844 Z M 46.152344 22.339844 "/>
<path style=" stroke:none;fill-rule:nonzero;fill:rgb(79.607844%,32.549021%,48.235294%);fill-opacity:1;" d="M 18.503906 22.339844 C 19.035156 22.621094 19.035156 22.621094 19.355469 22.980469 C 19.355469 23.1875 19.355469 23.398438 19.355469 23.617188 C 19.003906 23.6875 18.652344 23.757812 18.292969 23.828125 C 18.222656 23.6875 18.152344 23.550781 18.078125 23.402344 C 17.539062 23.265625 17.539062 23.265625 17.015625 23.191406 C 17.015625 23.824219 17.015625 24.457031 17.015625 25.105469 C 17.367188 25.175781 17.714844 25.246094 18.078125 25.320312 C 18.148438 25.179688 18.21875 25.039062 18.292969 24.894531 C 18.640625 24.964844 18.992188 25.035156 19.355469 25.105469 C 19.109375 25.632812 18.917969 25.96875 18.503906 26.382812 C 17 26.527344 17 26.527344 16.285156 25.996094 C 15.683594 25.15625 15.632812 24.414062 15.738281 23.402344 C 16.53125 22.238281 17.1875 22.171875 18.503906 22.339844 Z M 18.503906 22.339844 "/>
<path style=" stroke:none;fill-rule:nonzero;fill:rgb(80.000001%,33.725491%,48.627451%);fill-opacity:1;" d="M 87.414062 22.339844 C 88.257812 22.339844 89.097656 22.339844 89.964844 22.339844 C 89.964844 22.621094 89.964844 22.902344 89.964844 23.191406 C 89.476562 23.191406 88.984375 23.191406 88.476562 23.191406 C 88.476562 23.402344 88.476562 23.613281 88.476562 23.828125 C 88.898438 23.828125 89.320312 23.828125 89.753906 23.828125 C 89.753906 24.109375 89.753906 24.390625 89.753906 24.679688 C 89.332031 24.679688 88.910156 24.679688 88.476562 24.679688 C 88.476562 24.960938 88.476562 25.242188 88.476562 25.53125 C 88.96875 25.53125 89.460938 25.53125 89.964844 25.53125 C 89.964844 25.8125 89.964844 26.09375 89.964844 26.382812 C 89.125 26.382812 88.28125 26.382812 87.414062 26.382812 C 87.414062 25.050781 87.414062 23.714844 87.414062 22.339844 Z M 87.414062 22.339844 "/>
<path style=" stroke:none;fill-rule:nonzero;fill:rgb(79.607844%,32.156864%,47.450981%);fill-opacity:1;" d="M 81.246094 22.339844 C 81.777344 22.621094 81.777344 22.621094 82.097656 22.980469 C 82.097656 23.1875 82.097656 23.398438 82.097656 23.617188 C 81.746094 23.617188 81.394531 23.617188 81.035156 23.617188 C 81.035156 23.476562 81.035156 23.335938 81.035156 23.191406 C 80.613281 23.332031 80.191406 23.472656 79.757812 23.617188 C 79.757812 24.109375 79.757812 24.601562 79.757812 25.105469 C 80.496094 25.265625 80.496094 25.265625 81.246094 25.320312 C 81.316406 25.179688 81.386719 25.039062 81.457031 24.894531 C 81.667969 24.964844 81.878906 25.035156 82.097656 25.105469 C 82.03125 25.503906 82.03125 25.503906 81.882812 25.957031 C 81.089844 26.488281 80.699219 26.480469 79.757812 26.382812 C 79.144531 26.078125 79.144531 26.078125 78.695312 25.53125 C 78.464844 24.714844 78.351562 23.964844 78.652344 23.160156 C 79.28125 22.183594 80.199219 22.199219 81.246094 22.339844 Z M 81.246094 22.339844 "/>
<path style=" stroke:none;fill-rule:nonzero;fill:rgb(78.823531%,30.19608%,45.882353%);fill-opacity:1;" d="M 27.648438 22.339844 C 28.492188 22.339844 29.332031 22.339844 30.203125 22.339844 C 30.203125 22.621094 30.203125 22.902344 30.203125 23.191406 C 29.640625 23.191406 29.078125 23.191406 28.5 23.191406 C 28.5 23.402344 28.5 23.613281 28.5 23.828125 C 28.921875 23.828125 29.34375 23.828125 29.777344 23.828125 C 29.777344 24.109375 29.777344 24.390625 29.777344 24.679688 C 29.355469 24.679688 28.933594 24.679688 28.5 24.679688 C 28.5 24.960938 28.5 25.242188 28.5 25.53125 C 29.0625 25.53125 29.621094 25.53125 30.203125 25.53125 C 30.203125 25.742188 30.203125 25.953125 30.203125 26.171875 C 29.359375 26.171875 28.515625 26.171875 27.648438 26.171875 C 27.648438 24.90625 27.648438 23.640625 27.648438 22.339844 Z M 27.648438 22.339844 "/>
<path style=" stroke:none;fill-rule:nonzero;fill:rgb(79.607844%,32.156864%,47.843137%);fill-opacity:1;" d="M 54.875 22.339844 C 55.222656 22.339844 55.574219 22.339844 55.9375 22.339844 C 56.078125 22.691406 56.21875 23.042969 56.363281 23.402344 C 56.726562 23.054688 56.984375 22.792969 57.210938 22.339844 C 57.5625 22.339844 57.914062 22.339844 58.277344 22.339844 C 58.078125 22.992188 57.894531 23.550781 57.519531 24.121094 C 57.101562 24.882812 57.074219 25.523438 57 26.382812 C 56.71875 26.382812 56.4375 26.382812 56.148438 26.382812 C 56.144531 26.265625 56.144531 26.144531 56.140625 26.023438 C 56.066406 24.832031 55.789062 24.082031 55.097656 23.113281 C 54.875 22.765625 54.875 22.765625 54.875 22.339844 Z M 54.875 22.339844 "/>
<path style=" stroke:none;fill-rule:nonzero;fill:rgb(79.215688%,30.980393%,46.666667%);fill-opacity:1;" d="M 49.128906 22.339844 C 50.253906 22.339844 51.375 22.339844 52.535156 22.339844 C 52.535156 22.621094 52.535156 22.902344 52.535156 23.191406 C 52.113281 23.191406 51.691406 23.191406 51.257812 23.191406 C 51.257812 24.175781 51.257812 25.15625 51.257812 26.171875 C 50.976562 26.171875 50.695312 26.171875 50.40625 26.171875 C 50.40625 25.1875 50.40625 24.203125 50.40625 23.191406 C 49.984375 23.191406 49.566406 23.191406 49.128906 23.191406 C 49.128906 22.910156 49.128906 22.628906 49.128906 22.339844 Z M 49.128906 22.339844 "/>
<path style=" stroke:none;fill-rule:nonzero;fill:rgb(38.039216%,38.039216%,38.039216%);fill-opacity:1;" d="M 99.960938 13.828125 C 100.03125 13.828125 100.101562 13.828125 100.175781 13.828125 C 100.175781 14.953125 100.175781 16.078125 100.175781 17.234375 C 97.15625 17.234375 94.140625 17.234375 91.03125 17.234375 C 91.03125 17.09375 91.03125 16.953125 91.03125 16.808594 C 91.148438 16.808594 91.265625 16.8125 91.390625 16.8125 C 94.359375 16.835938 94.359375 16.835938 97.332031 16.742188 C 97.578125 16.730469 97.828125 16.71875 98.082031 16.703125 C 98.675781 16.640625 98.675781 16.640625 99.066406 16.335938 C 99.390625 15.859375 99.53125 15.410156 99.683594 14.855469 C 99.765625 14.566406 99.765625 14.566406 99.84375 14.273438 C 99.882812 14.125 99.921875 13.980469 99.960938 13.828125 Z M 99.960938 13.828125 "/>
<path style=" stroke:none;fill-rule:nonzero;fill:rgb(38.039216%,38.039216%,38.039216%);fill-opacity:1;" d="M 39.113281 5.933594 C 39.292969 5.933594 39.46875 5.933594 39.652344 5.933594 C 39.851562 5.933594 40.050781 5.933594 40.257812 5.933594 C 40.476562 5.933594 40.691406 5.933594 40.917969 5.9375 C 41.136719 5.9375 41.359375 5.9375 41.585938 5.9375 C 42.296875 5.9375 43.007812 5.941406 43.71875 5.945312 C 44.199219 5.945312 44.679688 5.945312 45.164062 5.945312 C 46.34375 5.949219 47.523438 5.953125 48.707031 5.957031 C 48.707031 6.027344 48.707031 6.097656 48.707031 6.171875 C 48.421875 6.179688 48.421875 6.179688 48.132812 6.1875 C 47.425781 6.207031 46.714844 6.226562 46.003906 6.25 C 45.699219 6.257812 45.394531 6.265625 45.089844 6.277344 C 42.175781 6.269531 42.175781 6.269531 39.347656 6.808594 C 39.207031 7.582031 39.066406 8.351562 38.921875 9.148438 C 38.78125 9.148438 38.640625 9.148438 38.496094 9.148438 C 38.492188 8.65625 38.488281 8.164062 38.484375 7.671875 C 38.480469 7.398438 38.476562 7.125 38.476562 6.84375 C 38.503906 5.96875 38.503906 5.96875 39.113281 5.933594 Z M 39.113281 5.933594 "/>
<path style=" stroke:none;fill-rule:nonzero;fill:rgb(80.784315%,35.686275%,50.588238%);fill-opacity:1;" d="M 20.417969 22.339844 C 20.769531 22.339844 21.121094 22.339844 21.480469 22.339844 C 21.480469 23.675781 21.480469 25.007812 21.480469 26.382812 C 21.128906 26.382812 20.78125 26.382812 20.417969 26.382812 C 20.417969 25.050781 20.417969 23.714844 20.417969 22.339844 Z M 20.417969 22.339844 "/>
<path style=" stroke:none;fill-rule:nonzero;fill:rgb(99.215686%,97.254902%,98.039216%);fill-opacity:1;" d="M 60.921875 23.152344 C 61.464844 23.191406 61.464844 23.191406 61.890625 23.617188 C 61.945312 24.363281 61.945312 24.363281 61.890625 25.105469 C 61.75 25.246094 61.609375 25.386719 61.464844 25.53125 C 60.496094 25.414062 60.496094 25.414062 60.191406 25.105469 C 60.160156 24.722656 60.160156 24.722656 60.164062 24.253906 C 60.164062 24.101562 60.164062 23.949219 60.160156 23.789062 C 60.207031 23.1875 60.316406 23.199219 60.921875 23.152344 Z M 60.921875 23.152344 "/>
<path style=" stroke:none;fill-rule:nonzero;fill:rgb(16.862746%,16.862746%,16.862746%);fill-opacity:1;" d="M 28.5 13.402344 C 28.570312 13.402344 28.640625 13.402344 28.710938 13.402344 C 28.769531 13.664062 28.828125 13.921875 28.886719 14.1875 C 29.160156 15.253906 29.410156 15.929688 30.359375 16.554688 C 31.621094 17.042969 33.125 16.855469 34.457031 16.808594 C 33.675781 17.328125 33.269531 17.292969 32.339844 17.289062 C 32.082031 17.289062 31.820312 17.289062 31.550781 17.289062 C 30.839844 17.234375 30.839844 17.234375 30.414062 17.003906 C 29.839844 16.691406 29.839844 16.691406 28.5 17.019531 C 28.5 15.828125 28.5 14.632812 28.5 13.402344 Z M 28.5 13.402344 "/>
<path style=" stroke:none;fill-rule:nonzero;fill:rgb(26.666668%,26.666668%,26.666668%);fill-opacity:1;" d="M 63.59375 6.382812 C 64.234375 6.320312 64.71875 6.246094 65.292969 5.957031 C 65.222656 7.152344 65.15625 8.34375 65.082031 9.574219 C 64.941406 9.574219 64.800781 9.574219 64.65625 9.574219 C 64.636719 9.445312 64.613281 9.316406 64.59375 9.183594 C 64.398438 8.152344 64.261719 7.46875 63.378906 6.808594 C 62.890625 6.5625 62.511719 6.53125 61.972656 6.476562 C 61.796875 6.457031 61.625 6.441406 61.445312 6.421875 C 61.3125 6.410156 61.179688 6.394531 61.042969 6.382812 C 61.042969 6.3125 61.042969 6.242188 61.042969 6.171875 C 62.0625 5.925781 62.613281 6.054688 63.59375 6.382812 Z M 63.59375 6.382812 "/>
<path style=" stroke:none;fill-rule:nonzero;fill:rgb(20.784314%,20.784314%,20.784314%);fill-opacity:1;" d="M 33.179688 6.171875 C 33.746094 6.152344 34.242188 6.171875 34.800781 6.289062 C 35.335938 6.429688 35.335938 6.429688 35.945312 6.171875 C 35.875 7.292969 35.804688 8.417969 35.730469 9.574219 C 35.589844 9.574219 35.449219 9.574219 35.304688 9.574219 C 35.289062 9.429688 35.269531 9.285156 35.25 9.140625 C 35.070312 7.90625 35.070312 7.90625 34.363281 6.914062 C 34.183594 6.808594 34.003906 6.703125 33.816406 6.597656 C 33.605469 6.457031 33.394531 6.316406 33.179688 6.171875 Z M 33.179688 6.171875 "/>
<path style=" stroke:none;fill-rule:nonzero;fill:rgb(20%,20%,20%);fill-opacity:1;" d="M 111.023438 13.828125 C 111.164062 13.828125 111.304688 13.828125 111.449219 13.828125 C 111.378906 14.953125 111.308594 16.078125 111.234375 17.234375 C 110.671875 17.234375 110.113281 17.234375 109.535156 17.234375 C 109.699219 17.027344 109.867188 16.820312 110.039062 16.609375 C 110.667969 15.738281 110.863281 14.878906 111.023438 13.828125 Z M 111.023438 13.828125 "/>
<path style=" stroke:none;fill-rule:nonzero;fill:rgb(12.54902%,12.54902%,12.54902%);fill-opacity:1;" d="M 45.300781 6.171875 C 46.425781 6.171875 47.546875 6.171875 48.707031 6.171875 C 48.707031 7.152344 48.707031 8.136719 48.707031 9.148438 C 48.636719 9.148438 48.566406 9.148438 48.492188 9.148438 C 48.46875 9.019531 48.445312 8.886719 48.421875 8.753906 C 48.386719 8.582031 48.355469 8.410156 48.320312 8.230469 C 48.289062 8.0625 48.253906 7.890625 48.222656 7.714844 C 48.042969 7.160156 47.902344 6.933594 47.429688 6.597656 C 46.898438 6.472656 46.898438 6.472656 46.324219 6.449219 C 46.132812 6.433594 45.941406 6.421875 45.746094 6.40625 C 45.597656 6.398438 45.453125 6.390625 45.300781 6.382812 C 45.300781 6.3125 45.300781 6.242188 45.300781 6.171875 Z M 45.300781 6.171875 "/>
<path style=" stroke:none;fill-rule:nonzero;fill:rgb(31.764707%,31.764707%,31.764707%);fill-opacity:1;" d="M 22.96875 5.957031 C 24.023438 5.957031 25.074219 5.957031 26.160156 5.957031 C 26.160156 6.097656 26.160156 6.238281 26.160156 6.382812 C 24.96875 6.726562 24.148438 6.925781 22.96875 6.382812 C 22.96875 6.242188 22.96875 6.101562 22.96875 5.957031 Z M 22.96875 5.957031 "/>
<path style=" stroke:none;fill-rule:nonzero;fill:rgb(80.392158%,34.117648%,49.411765%);fill-opacity:1;" d="M 41.472656 25.320312 C 41.914062 25.414062 41.914062 25.414062 42.324219 25.53125 C 42.378906 26.128906 42.378906 26.128906 42.324219 26.808594 C 41.898438 27.207031 41.898438 27.207031 41.472656 27.445312 C 41.472656 27.164062 41.472656 26.886719 41.472656 26.597656 C 41.433594 26.40625 41.394531 26.21875 41.355469 26.023438 C 41.324219 25.863281 41.292969 25.699219 41.261719 25.53125 C 41.332031 25.460938 41.402344 25.390625 41.472656 25.320312 Z M 41.472656 25.320312 "/>
<path style=" stroke:none;fill-rule:nonzero;fill:rgb(10.196079%,10.196079%,10.196079%);fill-opacity:1;" d="M 99.75 15.105469 C 99.820312 15.105469 99.890625 15.105469 99.960938 15.105469 C 99.960938 15.738281 99.960938 16.371094 99.960938 17.019531 C 99.472656 17.019531 98.980469 17.019531 98.472656 17.019531 C 98.671875 16.785156 98.671875 16.785156 98.871094 16.542969 C 99.242188 16.066406 99.507812 15.652344 99.75 15.105469 Z M 99.75 15.105469 "/>
<path style=" stroke:none;fill-rule:nonzero;fill:rgb(79.607844%,32.549021%,47.843137%);fill-opacity:1;" d="M 99.75 25.320312 C 100.277344 25.425781 100.277344 25.425781 100.8125 25.53125 C 100.742188 25.8125 100.671875 26.09375 100.601562 26.382812 C 100.320312 26.3125 100.039062 26.242188 99.75 26.171875 C 99.75 25.890625 99.75 25.609375 99.75 25.320312 Z M 99.75 25.320312 "/>
<path style=" stroke:none;fill-rule:nonzero;fill:rgb(96.470588%,89.411765%,91.764706%);fill-opacity:1;" d="M 69.761719 23.191406 C 70.289062 23.296875 70.289062 23.296875 70.824219 23.402344 C 70.753906 23.613281 70.683594 23.824219 70.613281 24.042969 C 70.332031 24.042969 70.050781 24.042969 69.761719 24.042969 C 69.761719 23.761719 69.761719 23.480469 69.761719 23.191406 Z M 69.761719 23.191406 "/>
<path style=" stroke:none;fill-rule:nonzero;fill:rgb(97.647059%,92.54902%,94.509804%);fill-opacity:1;" d="M 75.503906 24.679688 C 76.0625 24.878906 76.0625 24.878906 76.566406 25.105469 C 76.566406 25.246094 76.566406 25.386719 76.566406 25.53125 C 75.558594 25.371094 75.558594 25.371094 75.078125 24.894531 C 75.21875 24.824219 75.359375 24.753906 75.503906 24.679688 Z M 75.503906 24.679688 "/>
</g>
</svg>
